<svg xmlns="http://www.w3.org/2000/svg" width="110" height="110"><defs><style>.cls-2,.cls-9{fill:#fff}.cls-4,.cls-9{stroke:#081f4d}.cls-4,.cls-5,.cls-9{stroke-linecap:round;stroke-linejoin:round}.cls-4,.cls-5{fill:none}.cls-5{stroke:#a0accb}</style></defs><g id="Calendar" transform="translate(-1036 -2884)"><g id="Groupe_18188" data-name="Groupe 18188" transform="translate(741.431 2053.958)"><g id="Groupe_17781" data-name="Groupe 17781"><circle id="Ellipse_435" data-name="Ellipse 435" cx="55" cy="55" r="55" transform="translate(294.569 830.042)" style="fill:#d8e0ea;opacity:.154;isolation:isolate"/></g></g><g id="Groupe_24582" data-name="Groupe 24582" transform="translate(531 2323.649)"><g id="Groupe_24391" data-name="Groupe 24391" transform="translate(96.118 .074)"><path id="Tracé_25046" data-name="Tracé 25046" class="cls-2" d="M782.434 468.478v56.341a2.657 2.657 0 0 1-1.369 2.371 2.184 2.184 0 0 1-1.027.255h-50.581a2.534 2.534 0 0 1-2.4-2.626v-67.7a2.526 2.526 0 0 1 2.4-2.617h39.781v11.361a2.526 2.526 0 0 0 2.4 2.617z" transform="translate(-298.297 132.568)"/><path id="Tracé_25049" data-name="Tracé 25049" d="M790.791 468.478H780a2.525 2.525 0 0 1-2.4-2.62V454.5z" transform="translate(-306.652 132.569)" style="stroke-linecap:round;stroke-linejoin:round;stroke:#081f4d;fill:#ffc300"/><path id="Tracé_25050" data-name="Tracé 25050" class="cls-4" d="M782.434 477.663v49.2a2.657 2.657 0 0 1-1.369 2.371 2.184 2.184 0 0 1-1.027.255h-50.581a2.534 2.534 0 0 1-2.4-2.626v-4.693" transform="translate(-298.297 130.526)"/><path id="Tracé_25051" data-name="Tracé 25051" class="cls-4" d="M727.053 515.968v-58.851a2.526 2.526 0 0 1 2.4-2.617h39.781v11.361a2.526 2.526 0 0 0 2.4 2.617h10.792v4.027" transform="translate(-298.297 132.568)"/><path id="Ligne_2694" data-name="Ligne 2694" class="cls-5" transform="translate(433.859 601.047)" d="M0 0h30.188"/><path id="Ligne_2695" data-name="Ligne 2695" class="cls-5" transform="translate(433.859 609.254)" d="M0 0h30.188"/><path id="Ligne_2696" data-name="Ligne 2696" class="cls-5" transform="translate(433.859 617.461)" d="M0 0h45.218"/><path id="Ligne_2697" data-name="Ligne 2697" class="cls-5" transform="translate(433.859 625.669)" d="M0 0h45.218"/><path id="Ligne_2698" data-name="Ligne 2698" class="cls-5" transform="translate(433.859 633.876)" d="M0 0h45.218"/><path id="Ligne_2699" data-name="Ligne 2699" class="cls-4" transform="translate(433.859 652.694)" d="M18.096 0H0"/><path id="Tracé_25052" data-name="Tracé 25052" class="cls-4" d="M735.833 525.216a10.264 10.264 0 0 0 2.33.283 3.048 3.048 0 0 0 2.063-.733 2.159 2.159 0 0 0 .412-1.811 20.653 20.653 0 0 0-.331-2.155 6.7 6.7 0 0 1-.225-3.244 3.127 3.127 0 0 1 2.931-2.112 1.908 1.908 0 0 1 1.112.282 1.36 1.36 0 0 1 .481.837 6.642 6.642 0 0 1-.249 3.957 12.908 12.908 0 0 0-1.091 2.955.52.52 0 0 0 .487.635c1.436-.095 2.414-1.869 2.518-3.07-.024.485.3 2.166 1.344 2.26.629.057 1.059-1.087 1.862-.282" transform="translate(-299.749 127.193)"/></g><g id="Groupe_24290" data-name="Groupe 24290"><path id="Ligne_2790" data-name="Ligne 2790" class="cls-4" transform="translate(517.825 660)" d="M0 0h83.636"/><path id="Ligne_2791" data-name="Ligne 2791" class="cls-4" transform="translate(512.033 660)" d="M0 0h1.614"/><path id="Ligne_2792" data-name="Ligne 2792" class="cls-4" transform="translate(605.388 660)" d="M0 0h2.579"/></g><g id="Groupe_25114" data-name="Groupe 25114" transform="translate(39 25.303)"><path id="Tracé_25360" data-name="Tracé 25360" class="cls-2" d="M557.342 616.1v24.056a2.683 2.683 0 0 1-2.693 2.693H520.9a2.691 2.691 0 0 1-2.693-2.693V616.1z" transform="translate(-.002 -8.078)"/><path id="Tracé_25361" data-name="Tracé 25361" d="M557.342 605.218v5.577h-39.133v-5.577a2.7 2.7 0 0 1 2.693-2.7h33.747a2.688 2.688 0 0 1 2.693 2.7z" transform="translate(-.002 -2.772)" style="fill:#1e96fc"/><path id="Rectangle_8022" data-name="Rectangle 8022" transform="translate(518.204 605.746)" style="fill:#1a81db" d="M0 0h39.135v2.247H0z"/><path id="Tracé_25363" data-name="Tracé 25363" class="cls-4" d="M518.2 620.152V616.1h39.135v24.056a2.686 2.686 0 0 1-2.7 2.7H520.9a2.7 2.7 0 0 1-2.7-2.7v-16.55" transform="translate(0 -8.078)"/><path id="Tracé_25366" data-name="Tracé 25366" class="cls-4" d="M557.339 605.217v5.583H518.2v-5.579a2.7 2.7 0 0 1 2.7-2.7h33.745a2.686 2.686 0 0 1 2.694 2.696z" transform="translate(0 -2.773)"/><g id="Groupe_24294" data-name="Groupe 24294" transform="translate(548.244 595.422)"><path id="Tracé_25367" data-name="Tracé 25367" class="cls-9" d="M569.655 595.422a2.152 2.152 0 0 0-2.153 2.152v4.347a2.153 2.153 0 1 0 4.305 0v-4.347a2.152 2.152 0 0 0-2.152-2.152z" transform="translate(-567.502 -595.422)"/></g><g id="Groupe_24295" data-name="Groupe 24295" transform="translate(522.994 595.422)"><path id="Tracé_25368" data-name="Tracé 25368" class="cls-9" d="M528.218 595.422a2.152 2.152 0 0 0-2.153 2.152v4.347a2.153 2.153 0 1 0 4.305 0v-4.347a2.152 2.152 0 0 0-2.152-2.152z" transform="translate(-526.065 -595.422)"/></g><g id="Groupe_24296" data-name="Groupe 24296" transform="translate(531.411 595.422)"><path id="Tracé_25369" data-name="Tracé 25369" class="cls-9" d="M542.03 595.422a2.152 2.152 0 0 0-2.152 2.152v4.347a2.152 2.152 0 1 0 4.3 0v-4.347a2.152 2.152 0 0 0-2.148-2.152z" transform="translate(-539.878 -595.422)"/></g><g id="Groupe_24297" data-name="Groupe 24297" transform="translate(539.828 595.422)"><path id="Tracé_25370" data-name="Tracé 25370" class="cls-9" d="M555.842 595.422a2.152 2.152 0 0 0-2.152 2.152v4.347a2.153 2.153 0 1 0 4.305 0v-4.347a2.153 2.153 0 0 0-2.153-2.152z" transform="translate(-553.69 -595.422)"/></g></g><path id="Tracé_34411" data-name="Tracé 34411" d="M-6.125-6.688h-2.068v-1a2.787 2.787 0 0 1 .973-2.118q.091-.091.578-.51a8.834 8.834 0 0 0 .654-.6 3.121 3.121 0 0 0 .373-.54 1.388 1.388 0 0 0 .205-.692 1.259 1.259 0 0 0-.433-.981 1.57 1.57 0 0 0-1.087-.388 3.129 3.129 0 0 0-2.27 1.323l-1.323-1.49a4.651 4.651 0 0 1 3.76-1.856 3.736 3.736 0 0 1 2.616.928 3.015 3.015 0 0 1 1.019 2.327 3.062 3.062 0 0 1-1.065 2.312q-.167.152-.624.555t-.669.616a3.007 3.007 0 0 0-.426.563 1.292 1.292 0 0 0-.213.669zm-2.266 1.916a1.177 1.177 0 0 1 .365-.875A1.233 1.233 0 0 1-7.128-6a1.189 1.189 0 0 1 .875.357 1.189 1.189 0 0 1 .357.875 1.183 1.183 0 0 1-.357.882 1.2 1.2 0 0 1-.875.35 1.255 1.255 0 0 1-.89-.35 1.158 1.158 0 0 1-.373-.886z" transform="translate(584 656.242)" style="fill:#a0accb"/></g></g></svg>