<svg xmlns="http://www.w3.org/2000/svg" id="Illu_Toute_la_famille" width="110" height="110"><defs><style>.cls-12,.cls-2{fill:none}.cls-2,.cls-4,.cls-6,.cls-8{stroke:#a0accb}.cls-11,.cls-12,.cls-2,.cls-4,.cls-6,.cls-8{stroke-linecap:round;stroke-linejoin:round}.cls-10,.cls-8{fill:#dae0e9}.cls-4{fill:#f7f9fb}.cls-9{fill:#f9fbfc}.cls-6{fill:#fff}.cls-11{fill:#b5d8fe}.cls-11,.cls-12{stroke:#077af1}</style></defs><g id="Groupe_18188" transform="translate(-294.569 -830.042)"><g id="Groupe_17781"><circle id="Ellipse_435" cx="55" cy="55" r="55" transform="translate(294.569 830.042)" style="isolation:isolate" fill="#d8e0ea" opacity=".154"/></g></g><g id="Groupe_18315" transform="translate(-294.569 -830.042)"><g id="Groupe_18314"><path id="Ligne_347" d="M0 0h83.637" class="cls-2" transform="translate(307.394 930.125)"/><path id="Ligne_348" d="M0 0h1.614" class="cls-2" transform="translate(301.602 930.125)"/><path id="Ligne_349" d="M0 0h2.579" class="cls-2" transform="translate(394.957 930.125)"/></g></g><g id="Groupe_19151" transform="translate(48.461 28.266)"><path id="Tracé_11547" fill="#dae0e9" stroke="#a0accb" stroke-miterlimit="10" d="M500.885 914.42h-9.778l1.467-19.166a14.082 14.082 0 0128.077 0l1.466 19.166h-9.778" transform="translate(-482.869 -882.26)"/><g id="Groupe_18316" transform="translate(0 27.05)"><path id="Tracé_11548" d="M531.292 928.1v22.863h-47.474v-30.4a9.307 9.307 0 018.116-9.228 7.96 7.96 0 011.211-.086h8.641s2.4-2.518 1.186-5.049H503" class="cls-2" transform="translate(-483.818 -906.194)"/><path id="Tracé_11549" d="M508.9 906.194h.024c-1.222 2.53 1.187 5.049 1.187 5.049h8.629a8.228 8.228 0 011.1.061 9.313 9.313 0 018.227 9.253v3.943" class="cls-2" transform="translate(-480.594 -906.194)"/></g><g id="Groupe_18317" transform="translate(17.968 27.05)"><path id="Tracé_11550" d="M510.057 906.194h.024c-1.222 2.53 1.187 5.049 1.187 5.049l-5.819 7.163-5.732-7.163s2.4-2.518 1.186-5.049h.025" class="cls-4" transform="translate(-499.716 -906.194)"/></g><path id="Tracé_11551" d="M516.02 894.517v4.264a10.039 10.039 0 11-20.078 0v-4.264z" class="cls-4" transform="translate(-482.24 -880.664)"/></g><g id="Groupe_19152" transform="translate(13.431 20.796)"><g id="Groupe_18313"><path id="Tracé_11540" fill="#f9fbfc" stroke="#a0accb" stroke-linecap="round" stroke-linejoin="round" d="M508.109 946.863v3.7h-55.287v-30.07c0-7.11 5.76-11.275 12.863-11.275h8.366c-1.455 16.982 13.9 16.86 13.427 0h7.765c7.1 0 12.864 4.166 12.864 11.275v4.285" transform="translate(-452.822 -871.28)"/><path id="Tracé_11541" d="M486.124 899.66c-2.07 4.618-1.532 9.956 0 16.666-5.381 3.278-10.506 3.194-15.333 0 1.613-6.115 1.866-11.195 0-16.666z" class="cls-6" transform="translate(-450.483 -872.524)"/><path id="Tracé_11542" d="M489.925 896.544c0 8.709-5.018 14.978-11.207 14.978s-11.19-6.269-11.19-14.978.436-16.648 11.19-17.358c6.175-.407 11.207 8.65 11.207 17.358z" class="cls-6" transform="translate(-450.908 -875.192)"/><path id="Tracé_11543" fill="#dae0e9" stroke="#9facca" stroke-linecap="round" stroke-linejoin="round" d="M490.086 894.71c4.761-9.175-.578-14.607-.578-14.607-6.914-7.536-13.9-3.559-16.017-2.041a4.04 4.04 0 01-1.429.665c-12.059 2.8-4.081 16.206-4.081 16.206s-.2-9.572 5.009-10.961c0 0 2.33 3.372 8.68 3.571 0 0 5.306-.6 6.67 2.951z" transform="translate(-451.185 -875.65)"/><path id="Tracé_11544" d="M469.568 913.445a24.475 24.475 0 0017.432 0l-5.575 18.891h-5.773z" class="cls-8" transform="translate(-450.642 -870.73)"/><path id="Tracé_11545" d="M465.361 909.217h6.745l4.463 23.671-10.669-16.119 2.18-2.38z" class="cls-6" transform="translate(-451.19 -871.28)"/><path id="Tracé_11546" d="M490.9 909.217h-6.744l-4.464 23.671 10.662-16.119-2.179-2.38z" class="cls-6" transform="translate(-449.324 -871.28)"/></g></g><g id="Groupe_19149" transform="translate(-442.569 -950.042)"><g id="Groupe_19150" transform="translate(0 -149)"><g id="Groupe_18333" transform="translate(-18 136.574)"><path id="Tracé_11569" d="M504.794 1035.807v2.275a1.108 1.108 0 01-1.114 1.112h-7.91a5.834 5.834 0 00-5.835 5.834v10.432h35.907v-10.432a6.08 6.08 0 00-6.115-5.834H512.1a1.114 1.114 0 01-1.119-1.112v-2.268" class="cls-9" transform="translate(0 7.055)"/><path id="Rectangle_3252" d="M0 0h35.907v2.596H0z" class="cls-10" transform="translate(489.937 1059.954)"/><path id="Tracé_11570" d="M504.794 1035.807v2.275a1.108 1.108 0 01-1.114 1.112h-7.91a5.834 5.834 0 00-5.835 5.834v10.432h35.907v-10.432a6.08 6.08 0 00-6.115-5.834H512.1a1.114 1.114 0 01-1.119-1.112v-2.268" class="cls-2" transform="translate(0 7.055)"/><path id="Tracé_11571" d="M500 1039.569a1.108 1.108 0 001.114-1.112v-3.65l6.185.007v3.643a1.114 1.114 0 001.119 1.112l-.113 3.142-4.345.019-3.053.162-1.159-1.986z" class="cls-11" transform="translate(3.681 6.68)"/><path id="Ligne_357" d="M0 7.342V0" class="cls-2" transform="translate(520.859 1055.173)"/><path id="Tracé_11572" d="M493.561 1052.1v-7.342" class="cls-2" transform="translate(1.36 10.413)"/><path id="Tracé_11573" d="M500 1039.569a1.108 1.108 0 001.114-1.112v-3.65l6.185.007v3.643a1.114 1.114 0 001.119 1.112l-.113 3.142-4.345.019-3.053.162-1.159-1.986z" class="cls-6" transform="translate(3.681 6.68)"/><path id="Tracé_11574" d="M496.352 1032.473a10.684 10.684 0 1118.909.373z" class="cls-8" transform="translate(1.983)"/><path id="Tracé_11575" d="M497.026 1028.267a.687.687 0 00-.118-.007 2.629 2.629 0 101.4 4.851z" class="cls-6" transform="translate(1.631 4.224)"/><path id="Tracé_11576" d="M510.088 1028.267a.7.7 0 01.12-.007 2.629 2.629 0 11-1.4 4.851z" class="cls-6" transform="translate(7.08 4.224)"/><path id="Tracé_11577" d="M514.475 1025.577a16.177 16.177 0 01.355 3.379c0 6.83-4.165 12.366-9.3 12.366s-9.3-5.536-9.3-12.366a16.177 16.177 0 01.355-3.379s5.752-.278 7.356-3.344c-.004 0 2.888 5.573 10.534 3.344z" class="cls-12" transform="translate(2.36 1.963)"/><path id="Tracé_11578" d="M514.475 1025.577a16.177 16.177 0 01.355 3.379c0 6.83-4.165 12.366-9.3 12.366s-9.3-5.536-9.3-12.366a16.177 16.177 0 01.355-3.379s5.752-.278 7.356-3.344c-.004 0 2.888 5.573 10.534 3.344z" class="cls-6" transform="translate(2.36 1.963)"/><path id="Tracé_11579" d="M511.279 1038.282l-4.217 5.937a.758.758 0 01-1.126.113l-3.123-2.9 4.323-3.167z" class="cls-6" transform="translate(4.83 7.978)"/><path id="Tracé_11580" d="M501.2 1038.272l3.819 3.16-3.1 2.874a.754.754 0 01-1.141-.143l-3.842-5.883z" class="cls-6" transform="translate(2.625 7.98)"/></g><g id="Groupe_18330" transform="translate(9 149)"><path id="Tracé_11569-2" d="M500.741 1035.807v1.654a.806.806 0 01-.81.809h-5.752a4.243 4.243 0 00-4.243 4.243v7.586h26.112v-7.586a4.422 4.422 0 00-4.447-4.243h-5.548a.81.81 0 01-.814-.809v-1.649" class="cls-9"/><path id="Rectangle_3252-2" d="M0 0h26.112v1.888H0z" class="cls-10" transform="translate(489.936 1048.237)"/><path id="Tracé_11570-2" d="M500.741 1035.807v1.654a.806.806 0 01-.81.809h-5.752a4.243 4.243 0 00-4.243 4.243v7.586h26.112v-7.586a4.422 4.422 0 00-4.447-4.243h-5.548a.81.81 0 01-.814-.809v-1.649" class="cls-2"/><path id="Tracé_11571-2" d="M499.931 1038.27a.806.806 0 00.81-.809v-2.654l4.5.005v2.649a.81.81 0 00.814.809l-.082 2.285-3.16.014-2.22.118-.843-1.444z" class="cls-11"/><path id="Ligne_357-2" d="M0 5.339V0" class="cls-2" transform="translate(512.423 1044.76)"/><path id="Tracé_11572-2" d="M493.561 1050.1v-5.339" class="cls-2"/><path id="Tracé_11573-2" d="M499.931 1038.27a.806.806 0 00.81-.809v-2.654l4.5.005v2.649a.81.81 0 00.814.809l-.082 2.285-3.16.014-2.22.118-.843-1.444z" class="cls-6"/><path id="Tracé_11574-2" d="M496.044 1028.252a7.769 7.769 0 1113.751.271z" class="cls-8"/><path id="Tracé_11575-2" d="M496.278 1028.265a.5.5 0 00-.086-.005 1.912 1.912 0 101.017 3.528z" class="cls-6"/><path id="Tracé_11576-2" d="M509.739 1028.265a.507.507 0 01.087-.005 1.912 1.912 0 11-1.017 3.528z" class="cls-6"/><path id="Tracé_11577-2" d="M509.5 1024.665a11.763 11.763 0 01.258 2.457c0 4.967-3.029 8.993-6.764 8.993s-6.764-4.026-6.764-8.993a11.763 11.763 0 01.258-2.457s4.183-.2 5.349-2.432c-.003 0 2.1 4.053 7.663 2.432z" class="cls-12"/><path id="Tracé_11578-2" d="M509.5 1024.665a11.763 11.763 0 01.258 2.457c0 4.967-3.029 8.993-6.764 8.993s-6.764-4.026-6.764-8.993a11.763 11.763 0 01.258-2.457s4.183-.2 5.349-2.432c-.003 0 2.1 4.053 7.663 2.432z" class="cls-6"/><path id="Tracé_11579-2" d="M508.969 1038.278l-3.067 4.317a.551.551 0 01-.819.082l-2.271-2.107 3.144-2.3z" class="cls-6"/><path id="Tracé_11580-2" d="M500.035 1038.272l2.777 2.3-2.253 2.09a.548.548 0 01-.83-.1l-2.794-4.278z" class="cls-6"/></g></g></g></svg>