<svg xmlns="http://www.w3.org/2000/svg" id="Illu_Vous_et_votre_conjoint" width="110" height="110"><defs><style>.cls-3,.cls-4,.cls-6{stroke:#a0accb}.cls-10,.cls-3{fill:none}.cls-10,.cls-3,.cls-4,.cls-6{stroke-linecap:round;stroke-linejoin:round}.cls-4{fill:#f7f9fb}.cls-6{fill:#fff}.cls-10{stroke:#9facca}</style></defs><g id="Groupe_18188" transform="translate(-434.569 -830.042)"><g id="Groupe_17781"><circle id="Ellipse_435" cx="55" cy="55" r="55" transform="translate(434.569 830.042)" style="isolation:isolate" fill="#d8e0ea" opacity=".154"/></g></g><g id="Groupe_18320" transform="translate(-434.569 -830.042)"><g id="Groupe_18318"><path id="Tracé_11547" fill="#dae0e9" stroke="#a0accb" stroke-miterlimit="10" d="M499.759 910.715h-8.652l1.3-16.958a12.46 12.46 0 0124.843 0l1.3 16.958h-8.652"/><g id="Groupe_18316"><path id="Tracé_11548" d="M525.824 925.575v4.586h-42.006V918.9a8.235 8.235 0 017.182-8.163 7.041 7.041 0 011.071-.076h7.646s2.12-2.228 1.049-4.467h.022" class="cls-3"/><path id="Tracé_11549" d="M508.866 906.194h.021c-1.081 2.239 1.05 4.467 1.05 4.467h7.635a7.272 7.272 0 01.973.054 8.24 8.24 0 017.279 8.187v3.498" class="cls-3"/></g><g id="Groupe_18317"><path id="Tracé_11550" d="M508.866 906.194h.021c-1.081 2.239 1.05 4.467 1.05 4.467L504.788 917l-5.072-6.338s2.12-2.228 1.049-4.467h.022" class="cls-4"/></g><path id="Tracé_11551" d="M513.707 894.517v3.773a8.882 8.882 0 11-17.765 0v-3.773z" class="cls-4"/></g><g id="Groupe_18319"><g id="Groupe_18313"><path id="Tracé_11540" fill="#f9fbfc" stroke="#a0accb" stroke-linecap="round" stroke-linejoin="round" d="M501.741 926.883v3.277h-48.919v-10.966c0-6.291 5.1-9.976 11.381-9.976h7.4c-1.287 15.026 12.3 14.918 11.88 0h6.871c6.284 0 11.382 3.686 11.382 9.976v3.791"/><path id="Tracé_11541" d="M484.358 899.66c-1.832 4.086-1.356 8.809 0 14.746-4.761 2.9-9.3 2.826-13.567 0 1.427-5.411 1.651-9.905 0-14.746z" class="cls-6"/><path id="Tracé_11542" d="M487.345 894.543c0 7.706-4.44 13.253-9.916 13.253s-9.9-5.547-9.9-13.253.386-14.73 9.9-15.358c5.464-.361 9.916 7.653 9.916 15.358z" class="cls-6"/><path id="Tracé_11543" fill="#dae0e9" stroke="#9facca" stroke-linecap="round" stroke-linejoin="round" d="M487.242 892.514c4.213-8.118-.511-12.924-.511-12.924-6.118-6.668-12.3-3.149-14.172-1.806a3.575 3.575 0 01-1.264.588c-10.67 2.479-3.611 14.339-3.611 14.339s-.175-8.469 4.432-9.7c0 0 2.062 2.984 7.68 3.16 0 0 4.7-.527 5.9 2.611z"/><path id="Tracé_11544" fill="#dae0e9" stroke="#a0accb" stroke-linecap="round" stroke-linejoin="round" d="M469.568 913.445a21.655 21.655 0 0015.424 0l-4.933 16.715h-5.108z"/><path id="Tracé_11545" d="M465.361 909.217h5.968l3.949 20.944-9.436-14.261 1.929-2.106z" class="cls-6"/><path id="Tracé_11546" d="M489.607 909.217h-5.967l-3.95 20.944 9.434-14.262-1.928-2.106z" class="cls-6"/></g></g><g id="Groupe_17919"><g id="Groupe_17918"><path id="Tracé_11129" fill="#dae0e9" d="M502.924 856.629a10.938 10.938 0 01-1.753 5.6 15.527 15.527 0 01-1.077 1.587 34.787 34.787 0 01-8.734 7.748.666.666 0 01-.352.1.739.739 0 01-.358-.1 35.312 35.312 0 01-9.044-7.955 17.473 17.473 0 01-1.068-1.574 10.666 10.666 0 01-1.662-5.415 6.808 6.808 0 0112.032-4.375 6.8 6.8 0 0112.019 4.375z"/></g><path id="Tracé_11130" d="M500.9 855.293a10.287 10.287 0 01-1.652 5.248 15.338 15.338 0 01-1.034 1.52 34.655 34.655 0 01-8.542 7.579 34.775 34.775 0 01-8.845-7.771 16.892 16.892 0 01-1.034-1.521 10.006 10.006 0 01-1.56-5.055 6.114 6.114 0 0111.338-3.193 6.108 6.108 0 0111.329 3.193z" class="cls-4"/></g></g><g id="Groupe_18321" transform="translate(-434.569 -830.042)"><path id="Ligne_350" d="M0 0h83.637" class="cls-10" transform="translate(447.394 930.125)"/><path id="Ligne_351" d="M0 0h1.614" class="cls-10" transform="translate(441.602 930.125)"/><path id="Ligne_352" d="M0 0h2.579" class="cls-10" transform="translate(534.957 930.125)"/></g></svg>