<svg xmlns="http://www.w3.org/2000/svg" id="Acheel_Blue_Logo" width="104.841" height="25"><defs><clipPath id="clip-path"><path id="Rectangle_5" d="M0 0h104.841v25H0z" class="cls-1"/></clipPath><style>.cls-1{fill:#1e96fc}</style></defs><g id="Groupe_1" clip-path="url(#clip-path)"><path id="Tracé_1" d="M6.854 21.415a13.982 13.982 0 005.5 1.194 13.971 13.971 0 005.491-1.19l.328-.144 1.627 4.043a.363.363 0 00.336.226h4.2a.362.362 0 00.335-.5L15.033 1.118A.361.361 0 0014.7.892H10a.361.361 0 00-.335.226L.027 25.048a.362.362 0 00.335.5h4.2a.362.362 0 00.335-.226l1.628-4.052zm5.159-13.772a.361.361 0 01.671 0l3.8 9.439-.455.212a8.721 8.721 0 01-7.362 0l-.454-.214z" class="cls-1" transform="translate(0 -.544)"/><path id="Tracé_2" d="M199.939 41.484l-.095-.006c-.026.011-.011.021.09.031v-.008z" class="cls-1" transform="translate(-121.933 -25.309)"/><path id="Tracé_3" d="M141.014 20.162c-2.309.224-2.834-.373-2.834-2.866V.38a.369.369 0 00-.344-.366 4.732 4.732 0 00-.3-.013h-4.237a.37.37 0 00-.37.367v12.203a8.8 8.8 0 01-3.268 6.279c-3.022 2.259-5.584 1.888-7.032 1.343-.073-.025-.142-.055-.214-.084l-.111-.048c-.116-.05-.23-.1-.342-.159a1.269 1.269 0 01-.245-.135c3.395-.9 6.788-2.693 8.182-6.193a5.517 5.517 0 00-3.76-7.256 8.438 8.438 0 00-5.567.653c-3.834 1.643-5.546 4.514-5.824 7.5a15.406 15.406 0 004.58-.37c.983-3.618 5.606-3.9 6.142-3.174.57.776.021 3.083-4.366 4.5a13.877 13.877 0 01-2.282.556 16.723 16.723 0 01-4.082.231c-.071 0-.124-.007-.165-.011-.018.086-.039.17-.063.253l-.019.06a5.214 5.214 0 01-.067.2l-.019.049q-.041.106-.087.208l-.011.024a4.697 4.697 0 01-.11.225 5.545 5.545 0 01-.46.728q-.217.263-.5.591l-.005.005-.018.02a6.536 6.536 0 01-2.756 1.82 7.174 7.174 0 01-5.141-.521c3.49-.878 7.038-2.667 8.473-6.268a5.517 5.517 0 00-3.761-7.255 8.436 8.436 0 00-5.567.653c-3.834 1.642-5.545 4.513-5.824 7.5a15.886 15.886 0 004.6-.439c1.022-3.552 5.59-3.83 6.123-3.1.57.777.041 2.992-4.361 4.409a13.724 13.724 0 01-2.6.644 17.073 17.073 0 01-3.773.234c-.607-.03-.971-.082-.971-.082-.275-.035-.428-.065-.428-.065l-.173 1.622a2.967 2.967 0 01-.913 1.958.894.894 0 01-.8.069c-.372-.323-.423-.786-.482-1.628-.011-1.673.039-4.011-.052-5.68a6.5 6.5 0 00-2.3-4.955 6.5 6.5 0 00-4.7-1.336A7.39 7.39 0 0083.035 8V.381a.367.367 0 00-.367-.367h-4.192a.367.367 0 00-.366.367V12.7a9.012 9.012 0 01-3.133 6.236 11.6 11.6 0 01-1.4.961 10.665 10.665 0 01-2.611.826 6.651 6.651 0 01-4.176-.9 5.714 5.714 0 01-2.28-4.04 5.753 5.753 0 01.385-2.41 4.611 4.611 0 012.466-2.347 4.637 4.637 0 013.908 0 4.807 4.807 0 011.855 1.4.364.364 0 00.544.027L76.281 9.8a.365.365 0 00.013-.5 10.467 10.467 0 00-3.622-2.486 8.7 8.7 0 00-6.747 0 9.559 9.559 0 00-5 4.462l-.055.113c-.034.071-.092.2-.156.357a8.748 8.748 0 00-.617 2.2 10.263 10.263 0 00-.138 2.2 10.32 10.32 0 002.623 6.114 7.526 7.526 0 001.057.959l.007.007a10.688 10.688 0 008.065 1.559 13.891 13.891 0 006.4-3.037v2.781a.367.367 0 00.366.367h4.188a.369.369 0 00.367-.37c0-1.144-.005-2.263 0-3.381.012-2.279-.023-5.625.068-7.9.065-1.641 1.809-2.87 3.477-2.881A3.2 3.2 0 0190 13.156c.02.2.023.4.023.6v.523c.025 1.4.019 3.873.056 5.276a7.164 7.164 0 00.265 1.819 4.822 4.822 0 005.292 3.6c1.912-.156 3.51-1.888 4.7-3.772.02.032.037.065.058.1 2.862 4.4 8.851 3.854 10.232 3.355a11.051 11.051 0 005.479-4.039c.126.227.257.449.4.665 2.56 3.935 7.617 3.914 9.646 3.508a13.743 13.743 0 007.068-3.652 4.539 4.539 0 002.189 2.988 8.4 8.4 0 005.71.654.368.368 0 00.307-.364v-3.891a.367.367 0 00-.4-.364" class="cls-1" transform="translate(-36.575)"/></g></svg>