<svg xmlns="http://www.w3.org/2000/svg" id="Illu_Vous_et_vos_enfants" width="110" height="110"><defs><style>.cls-10,.cls-7{fill:#dae0e9}.cls-10,.cls-3,.cls-4,.cls-9{stroke:#a0accb}.cls-11,.cls-3,.cls-5{fill:none}.cls-10,.cls-11,.cls-3,.cls-4,.cls-5,.cls-8,.cls-9{stroke-linecap:round;stroke-linejoin:round}.cls-4{fill:#f7f9fb}.cls-5{stroke:#9facca}.cls-6{fill:#f9fbfc}.cls-8{fill:#b5d8fe}.cls-11,.cls-8{stroke:#077af1}.cls-9{fill:#fff}</style></defs><g id="Groupe_18328" transform="translate(-434.569 -950.042)"><g id="Groupe_18188"><g id="Groupe_17781"><circle id="Ellipse_435" cx="55" cy="55" r="55" transform="translate(434.569 950.042)" style="isolation:isolate" fill="#d8e0ea" opacity=".154"/></g></g><g id="Groupe_18326" transform="translate(-17)"><g id="Groupe_18324"><path id="Tracé_11552" fill="#dae0e9" stroke="#a0accb" stroke-miterlimit="10" d="M501.009 1009.785h-9.956l1.493-19.513a14.337 14.337 0 0128.585 0l1.494 19.513h-9.956"/><g id="Groupe_18322"><path id="Tracé_11553" d="M531 1026.884v23.241h-48.335v-30.919a9.477 9.477 0 018.263-9.4 8.13 8.13 0 011.232-.087h8.8s2.439-2.563 1.207-5.139h.025" class="cls-3"/><path id="Tracé_11554" d="M511.487 1004.584h.025c-1.245 2.576 1.207 5.139 1.207 5.139h8.786a8.476 8.476 0 011.12.062 9.483 9.483 0 018.375 9.421v4.02" class="cls-3"/></g><g id="Groupe_18323"><path id="Tracé_11555" d="M511.487 1004.584h.025c-1.245 2.576 1.207 5.139 1.207 5.139l-5.924 7.293-5.836-7.293s2.439-2.563 1.207-5.139h.025" class="cls-4"/></g><path id="Tracé_11556" d="M517.058 991.147v4.342a10.221 10.221 0 11-20.442 0v-4.342z" class="cls-4"/></g></g><g id="Groupe_18327"><path id="Ligne_353" d="M0 0h83.637" class="cls-5" transform="translate(447.394 1050.125)"/><path id="Ligne_354" d="M0 0h1.614" class="cls-5" transform="translate(441.602 1050.125)"/><path id="Ligne_355" d="M0 0h2.579" class="cls-5" transform="translate(534.957 1050.125)"/></g></g><g id="Groupe_18331" transform="translate(-434.569 -950.042)"><g id="Groupe_18333" transform="translate(-35 -12.426)"><path id="Tracé_11569" d="M504.794 1035.807v2.275a1.108 1.108 0 01-1.114 1.112h-7.91a5.834 5.834 0 00-5.835 5.834v10.432h35.907v-10.432a6.08 6.08 0 00-6.115-5.834H512.1a1.114 1.114 0 01-1.119-1.112v-2.268" class="cls-6" transform="translate(0 7.055)"/><path id="Rectangle_3252" d="M0 0h35.907v2.596H0z" class="cls-7" transform="translate(489.937 1059.954)"/><path id="Tracé_11570" d="M504.794 1035.807v2.275a1.108 1.108 0 01-1.114 1.112h-7.91a5.834 5.834 0 00-5.835 5.834v10.432h35.907v-10.432a6.08 6.08 0 00-6.115-5.834H512.1a1.114 1.114 0 01-1.119-1.112v-2.268" class="cls-3" transform="translate(0 7.055)"/><path id="Tracé_11571" d="M500 1039.569a1.108 1.108 0 001.114-1.112v-3.65l6.185.007v3.643a1.114 1.114 0 001.119 1.112l-.113 3.142-4.345.019-3.053.162-1.159-1.986z" class="cls-8" transform="translate(3.681 6.68)"/><path id="Ligne_357" d="M0 7.342V0" class="cls-3" transform="translate(520.859 1055.173)"/><path id="Tracé_11572" d="M493.561 1052.1v-7.342" class="cls-3" transform="translate(1.36 10.413)"/><path id="Tracé_11573" d="M500 1039.569a1.108 1.108 0 001.114-1.112v-3.65l6.185.007v3.643a1.114 1.114 0 001.119 1.112l-.113 3.142-4.345.019-3.053.162-1.159-1.986z" class="cls-9" transform="translate(3.681 6.68)"/><path id="Tracé_11574" d="M496.352 1032.473a10.684 10.684 0 1118.909.373z" class="cls-10" transform="translate(1.983)"/><path id="Tracé_11575" d="M497.026 1028.267a.687.687 0 00-.118-.007 2.629 2.629 0 101.4 4.851z" class="cls-9" transform="translate(1.631 4.224)"/><path id="Tracé_11576" d="M510.088 1028.267a.7.7 0 01.12-.007 2.629 2.629 0 11-1.4 4.851z" class="cls-9" transform="translate(7.08 4.224)"/><path id="Tracé_11577" d="M514.475 1025.577a16.177 16.177 0 01.355 3.379c0 6.83-4.165 12.366-9.3 12.366s-9.3-5.536-9.3-12.366a16.177 16.177 0 01.355-3.379s5.752-.278 7.356-3.344c-.004 0 2.888 5.573 10.534 3.344z" class="cls-11" transform="translate(2.36 1.963)"/><path id="Tracé_11578" d="M514.475 1025.577a16.177 16.177 0 01.355 3.379c0 6.83-4.165 12.366-9.3 12.366s-9.3-5.536-9.3-12.366a16.177 16.177 0 01.355-3.379s5.752-.278 7.356-3.344c-.004 0 2.888 5.573 10.534 3.344z" class="cls-9" transform="translate(2.36 1.963)"/><path id="Tracé_11579" d="M511.279 1038.282l-4.217 5.937a.758.758 0 01-1.126.113l-3.123-2.9 4.323-3.167z" class="cls-9" transform="translate(4.83 7.978)"/><path id="Tracé_11580" d="M501.2 1038.272l3.819 3.16-3.1 2.874a.754.754 0 01-1.141-.143l-3.842-5.883z" class="cls-9" transform="translate(2.625 7.98)"/></g><g id="Groupe_18330" transform="translate(8)"><path id="Tracé_11569-2" d="M500.741 1035.807v1.654a.806.806 0 01-.81.809h-5.752a4.243 4.243 0 00-4.243 4.243v7.586h26.112v-7.586a4.422 4.422 0 00-4.447-4.243h-5.548a.81.81 0 01-.814-.809v-1.649" class="cls-6"/><path id="Rectangle_3252-2" d="M0 0h26.112v1.888H0z" class="cls-7" transform="translate(489.936 1048.237)"/><path id="Tracé_11570-2" d="M500.741 1035.807v1.654a.806.806 0 01-.81.809h-5.752a4.243 4.243 0 00-4.243 4.243v7.586h26.112v-7.586a4.422 4.422 0 00-4.447-4.243h-5.548a.81.81 0 01-.814-.809v-1.649" class="cls-3"/><path id="Tracé_11571-2" d="M499.931 1038.27a.806.806 0 00.81-.809v-2.654l4.5.005v2.649a.81.81 0 00.814.809l-.082 2.285-3.16.014-2.22.118-.843-1.444z" class="cls-8"/><path id="Ligne_357-2" d="M0 5.339V0" class="cls-3" transform="translate(512.423 1044.76)"/><path id="Tracé_11572-2" d="M493.561 1050.1v-5.339" class="cls-3"/><path id="Tracé_11573-2" d="M499.931 1038.27a.806.806 0 00.81-.809v-2.654l4.5.005v2.649a.81.81 0 00.814.809l-.082 2.285-3.16.014-2.22.118-.843-1.444z" class="cls-9"/><path id="Tracé_11574-2" d="M496.044 1028.252a7.769 7.769 0 1113.751.271z" class="cls-10"/><path id="Tracé_11575-2" d="M496.278 1028.265a.5.5 0 00-.086-.005 1.912 1.912 0 101.017 3.528z" class="cls-9"/><path id="Tracé_11576-2" d="M509.739 1028.265a.507.507 0 01.087-.005 1.912 1.912 0 11-1.017 3.528z" class="cls-9"/><path id="Tracé_11577-2" d="M509.5 1024.665a11.763 11.763 0 01.258 2.457c0 4.967-3.029 8.993-6.764 8.993s-6.764-4.026-6.764-8.993a11.763 11.763 0 01.258-2.457s4.183-.2 5.349-2.432c-.003 0 2.1 4.053 7.663 2.432z" class="cls-11"/><path id="Tracé_11578-2" d="M509.5 1024.665a11.763 11.763 0 01.258 2.457c0 4.967-3.029 8.993-6.764 8.993s-6.764-4.026-6.764-8.993a11.763 11.763 0 01.258-2.457s4.183-.2 5.349-2.432c-.003 0 2.1 4.053 7.663 2.432z" class="cls-9"/><path id="Tracé_11579-2" d="M508.969 1038.278l-3.067 4.317a.551.551 0 01-.819.082l-2.271-2.107 3.144-2.3z" class="cls-9"/><path id="Tracé_11580-2" d="M500.035 1038.272l2.777 2.3-2.253 2.09a.548.548 0 01-.83-.1l-2.794-4.278z" class="cls-9"/></g></g></svg>